<svg width="77" height="69" fill="none" xmlns="http://www.w3.org/2000/svg"><path d="M71.9 46H4.3C1.9 46 0 48 0 50.3v3.5C0 56.1 1.9 58 4.3 58h1v1c0 5.5 4.5 9.9 9.9 9.9H61c5.5 0 9.9-4.5 9.9-9.9v-1h1c2.3 0 4.3-1.9 4.3-4.3v-3.5c0-2.2-1.9-4.2-4.3-4.2zM68 59c0 3.8-3.1 6.9-6.9 6.9h-46c-3.8 0-6.9-3.1-6.9-6.9v-1H68v1zm5.2-5.3c0 .7-.6 1.3-1.3 1.3H4.3c-.7 0-1.3-.6-1.3-1.3v-3.5c0-.6.6-1.2 1.3-1.2H72c.7 0 1.3.6 1.3 1.3v3.4h-.1zM16.2 37.9l5.4 4 5.5-4 5.5 4 5.5-4 5.4 4 5.5-4 5.5 4 5.5-4 5.5 4 6.3-4.7-1.7-2.4-4.6 3.3-5.5-4-5.5 4-5.5-4-5.5 4-5.4-4-5.5 4-5.5-4-5.5 4-5.4-4-5.5 4-4.59995-3.3-1.8 2.4L10.7 41.9l5.5-4zM70.9 31.1c0-.6.1-2.6 0-3C70.2 12.5 55.7999 0 38.0999 0c-17.7 0-32.19995 12.5-32.89995 28.1v3H70.9zM38.0999 3C54.0999 3 67.3 14.2 67.9 28.1H8.19995C8.89995 14.2 22.0999 3 38.0999 3z" fill="#81B3D2"/><path d="M38.1 17c1.1045 0 2-.8954 2-2s-.8955-2-2-2c-1.1046 0-2 .8954-2 2s.8954 2 2 2zM30.1 12.1c1.1045 0 2-.8955 2-2 0-1.10459-.8955-2.00002-2-2.00002-1.1046 0-2 .89543-2 2.00002 0 1.1045.8954 2 2 2zM46.1 12.1c1.1045 0 2-.8955 2-2 0-1.10459-.8955-2.00002-2-2.00002-1.1046 0-2 .89543-2 2.00002 0 1.1045.8954 2 2 2z" fill="#81B3D2"/></svg>